<?xml version="1.0" encoding="UTF-8" standalone="no"?>
<!-- Created with Inkscape (http://www.inkscape.org/) -->

<svg
   xmlns:dc="http://purl.org/dc/elements/1.1/"
   xmlns:cc="http://creativecommons.org/ns#"
   xmlns:rdf="http://www.w3.org/1999/02/22-rdf-syntax-ns#"
   xmlns:svg="http://www.w3.org/2000/svg"
   xmlns="http://www.w3.org/2000/svg"
   xmlns:sodipodi="http://sodipodi.sourceforge.net/DTD/sodipodi-0.dtd"
   xmlns:inkscape="http://www.inkscape.org/namespaces/inkscape"
   width="256"
   height="256"
   id="svg2"
   version="1.1"
   inkscape:version="0.48.2 r9819"
   sodipodi:docname="lineThick.svg"
   inkscape:export-filename="C:\Users\useradm\git2\gila\imgs\lineThick.png"
   inkscape:export-xdpi="5.6300001"
   inkscape:export-ydpi="5.6300001">
  <defs
     id="defs4" />
  <sodipodi:namedview
     id="base"
     pagecolor="#ffffff"
     bordercolor="#666666"
     borderopacity="1.0"
     inkscape:pageopacity="0.0"
     inkscape:pageshadow="2"
     inkscape:zoom="0.98994949"
     inkscape:cx="5.1651699"
     inkscape:cy="21.103543"
     inkscape:document-units="px"
     inkscape:current-layer="layer1"
     showgrid="false"
     inkscape:window-width="1920"
     inkscape:window-height="1138"
     inkscape:window-x="1912"
     inkscape:window-y="-8"
     inkscape:window-maximized="1" />
  <metadata
     id="metadata7">
    <rdf:RDF>
      <cc:Work
         rdf:about="">
        <dc:format>image/svg+xml</dc:format>
        <dc:type
           rdf:resource="http://purl.org/dc/dcmitype/StillImage" />
        <dc:title></dc:title>
      </cc:Work>
    </rdf:RDF>
  </metadata>
  <g
     inkscape:label="Layer 1"
     inkscape:groupmode="layer"
     id="layer1"
     transform="translate(0,-796.36217)">
    <g
       id="g3793"
       transform="translate(-2.0203051,-27.274119)">
      <path
         transform="matrix(0.58497896,0,0,0.58497896,172.20738,919.15323)"
         d="m 145.46196,140.84261 c 0,47.97869 -38.89442,86.87311 -86.873112,86.87311 -47.978697,0 -86.873115,-38.89442 -86.873115,-86.87311 0,-47.978701 38.894418,-86.87312 86.873115,-86.87312 47.978692,0 86.873112,38.894419 86.873112,86.87312 z"
         sodipodi:ry="86.873116"
         sodipodi:rx="86.873116"
         sodipodi:cy="140.84261"
         sodipodi:cx="58.588848"
         id="path2985"
         style="fill:#808080;fill-opacity:1;fill-rule:evenodd;stroke:none"
         sodipodi:type="arc" />
      <path
         sodipodi:type="arc"
         style="fill:#808080;fill-opacity:1;fill-rule:evenodd;stroke:none"
         id="path3789"
         sodipodi:cx="58.588848"
         sodipodi:cy="140.84261"
         sodipodi:rx="86.873116"
         sodipodi:ry="86.873116"
         d="m 145.46196,140.84261 c 0,47.97869 -38.89442,86.87311 -86.873112,86.87311 -47.978697,0 -86.873115,-38.89442 -86.873115,-86.87311 0,-47.978701 38.894418,-86.87312 86.873115,-86.87312 47.978692,0 86.873112,38.894419 86.873112,86.87312 z"
         transform="matrix(0.3333751,0,0,0.3333751,76.021164,976.44738)" />
      <path
         transform="matrix(0.18241279,0,0,0.18241279,8.9106537,1010.8239)"
         d="m 145.46196,140.84261 c 0,47.97869 -38.89442,86.87311 -86.873112,86.87311 -47.978697,0 -86.873115,-38.89442 -86.873115,-86.87311 0,-47.978701 38.894418,-86.87312 86.873115,-86.87312 47.978692,0 86.873112,38.894419 86.873112,86.87312 z"
         sodipodi:ry="86.873116"
         sodipodi:rx="86.873116"
         sodipodi:cy="140.84261"
         sodipodi:cx="58.588848"
         id="path3791"
         style="fill:#808080;fill-opacity:1;fill-rule:evenodd;stroke:none"
         sodipodi:type="arc" />
    </g>
  </g>
</svg>
